<svg xmlns="http://www.w3.org/2000/svg" xmlns:svg="http://www.w3.org/2000/svg" id="svg2" width="1325.644" height="1304.36" version="1.1" viewBox="0 0 1325.644 1304.36"><g id="g8" transform="translate(-2.4970775,0.52091799)"><g id="g299" transform="translate(2.8075864,-0.16085395)"><rect style="fill:#fff;fill-opacity:1;stroke:none;stroke-width:206.103;-inkscape-stroke:none;paint-order:markers fill stroke;stop-color:#000" id="rect233" width="816.222" height="798.07" x="244.443" y="233.498" ry=".052"/><path style="display:inline;fill:#00b58f;fill-opacity:1;stroke-width:1.33333" id="path301-3" d="M 643.33332,1302.6284 C 555.38028,1294.774 479.15578,1229.5881 452.17646,1146.3987 365.1656,1172.9784 256.76226,1169.0749 191.78612,1097.602 135.33521,1041.0433 125.78483,954.51001 132.90554,879.12797 27.643264,840.0347 -23.950806,710.53713 10.631324,606.53566 31.160016,538.95824 89.161475,491.0887 150.66666,460.95383 132.17351,383.3282 109.17012,286.89723 176.53929,208.21398 245.59226,117.25502 351.17827,122.69945 456.68922,148.14279 487.11625,53.778829 586.88174,-8.6050823 684.76256,0.73523325 768.24044,4.208648 847.6864,60.386088 874.6064,140.22544 c 74.56641,-12.86723 160.9359,-20.46764 223.0724,31.76822 50.6834,39.9143 88.7641,99.24318 87.8248,165.50394 0.9172,40.10389 -11.3035,80.36171 -17.3463,118.50273 91.006,16.98566 150.7941,110.43337 155.9964,198.76876 -1.4077,111.9506 -39.9241,161.47862 -142.1604,226.41478 -23.0871,9.17287 -7.6187,-23.63612 0.099,0.19679 14.9648,101.47472 -12.7725,196.71414 -94.2877,247.03244 -61.8025,38.0454 -138.43829,38.1856 -207.78888,25.8934 -31.30802,91.2446 -125.03454,155.0168 -221.54649,149.406 -5.0828,0.5468 -10.09245,-0.6943 -15.13611,-1.0841 z M 1035.3221,509.16858 914.89987,385.18932 612.58033,685.0871 410.67145,498.35574 288.7937,614.47176 602.77705,931.57354 Z"/></g></g></svg>