<?xml version="1.0" encoding="UTF-8"?>
<!DOCTYPE svg PUBLIC "-//W3C//DTD SVG 1.1//EN" "http://www.w3.org/Graphics/SVG/1.1/DTD/svg11.dtd">
<svg width="160mm" height="90mm" viewBox="0 0 16000 9000" version="1.1" xmlns="http://www.w3.org/2000/svg" xmlns:xlink="http://www.w3.org/1999/xlink" stroke-width="28.222" stroke-linejoin="round" xml:space="preserve">
 <path fill="rgb(255,255,255)" stroke="none" d="M 7993,8992 L -7,8992 -7,-7 15992,-7 15992,8992 7993,8992 Z"/>
 <path fill="none" stroke="rgb(179,179,179)" stroke-linejoin="round" d="M 9883,8165 L 6559,8165 6559,173 13208,173 13208,8165 9883,8165 Z"/>
 <path fill="none" stroke="rgb(179,179,179)" stroke-linejoin="round" d="M 6559,171 L 6559,8163"/>
 <path fill="none" stroke="rgb(179,179,179)" stroke-linejoin="round" d="M 7667,171 L 7667,8163"/>
 <path fill="none" stroke="rgb(179,179,179)" stroke-linejoin="round" d="M 8774,171 L 8774,8163"/>
 <path fill="none" stroke="rgb(179,179,179)" stroke-linejoin="round" d="M 9883,171 L 9883,8163"/>
 <path fill="none" stroke="rgb(179,179,179)" stroke-linejoin="round" d="M 10991,171 L 10991,8163"/>
 <path fill="none" stroke="rgb(179,179,179)" stroke-linejoin="round" d="M 12099,171 L 12099,8163"/>
 <path fill="none" stroke="rgb(179,179,179)" stroke-linejoin="round" d="M 13208,171 L 13208,8163"/>
 <path fill="none" stroke="rgb(179,179,179)" stroke-linejoin="round" d="M 6409,8163 L 6559,8163"/>
 <path fill="none" stroke="rgb(179,179,179)" stroke-linejoin="round" d="M 6409,8163 L 6559,8163"/>
 <path fill="none" stroke="rgb(179,179,179)" stroke-linejoin="round" d="M 6409,6831 L 6559,6831"/>
 <path fill="none" stroke="rgb(179,179,179)" stroke-linejoin="round" d="M 6409,6831 L 6559,6831"/>
 <path fill="none" stroke="rgb(179,179,179)" stroke-linejoin="round" d="M 6409,5499 L 6559,5499"/>
 <path fill="none" stroke="rgb(179,179,179)" stroke-linejoin="round" d="M 6409,5499 L 6559,5499"/>
 <path fill="none" stroke="rgb(179,179,179)" stroke-linejoin="round" d="M 6409,4168 L 6559,4168"/>
 <path fill="none" stroke="rgb(179,179,179)" stroke-linejoin="round" d="M 6409,4168 L 6559,4168"/>
 <path fill="none" stroke="rgb(179,179,179)" stroke-linejoin="round" d="M 6409,2836 L 6559,2836"/>
 <path fill="none" stroke="rgb(179,179,179)" stroke-linejoin="round" d="M 6409,2836 L 6559,2836"/>
 <path fill="none" stroke="rgb(179,179,179)" stroke-linejoin="round" d="M 6409,1504 L 6559,1504"/>
 <path fill="none" stroke="rgb(179,179,179)" stroke-linejoin="round" d="M 6409,1504 L 6559,1504"/>
 <path fill="none" stroke="rgb(179,179,179)" stroke-linejoin="round" d="M 6409,171 L 6559,171"/>
 <path fill="none" stroke="rgb(179,179,179)" stroke-linejoin="round" d="M 6409,171 L 6559,171"/>
 <path fill="none" stroke="rgb(179,179,179)" stroke-linejoin="round" d="M 6559,8163 L 6559,171"/>
 <path fill="none" stroke="rgb(179,179,179)" stroke-linejoin="round" d="M 6559,8314 L 6559,8164"/>
 <path fill="none" stroke="rgb(179,179,179)" stroke-linejoin="round" d="M 6559,8314 L 6559,8164"/>
 <path fill="none" stroke="rgb(179,179,179)" stroke-linejoin="round" d="M 7667,8314 L 7667,8164"/>
 <path fill="none" stroke="rgb(179,179,179)" stroke-linejoin="round" d="M 7667,8314 L 7667,8164"/>
 <path fill="none" stroke="rgb(179,179,179)" stroke-linejoin="round" d="M 8774,8314 L 8774,8164"/>
 <path fill="none" stroke="rgb(179,179,179)" stroke-linejoin="round" d="M 8774,8314 L 8774,8164"/>
 <path fill="none" stroke="rgb(179,179,179)" stroke-linejoin="round" d="M 9883,8314 L 9883,8164"/>
 <path fill="none" stroke="rgb(179,179,179)" stroke-linejoin="round" d="M 9883,8314 L 9883,8164"/>
 <path fill="none" stroke="rgb(179,179,179)" stroke-linejoin="round" d="M 10991,8314 L 10991,8164"/>
 <path fill="none" stroke="rgb(179,179,179)" stroke-linejoin="round" d="M 10991,8314 L 10991,8164"/>
 <path fill="none" stroke="rgb(179,179,179)" stroke-linejoin="round" d="M 12099,8314 L 12099,8164"/>
 <path fill="none" stroke="rgb(179,179,179)" stroke-linejoin="round" d="M 12099,8314 L 12099,8164"/>
 <path fill="none" stroke="rgb(179,179,179)" stroke-linejoin="round" d="M 13208,8314 L 13208,8164"/>
 <path fill="none" stroke="rgb(179,179,179)" stroke-linejoin="round" d="M 13208,8314 L 13208,8164"/>
 <path fill="none" stroke="rgb(179,179,179)" stroke-linejoin="round" d="M 6559,8163 L 13208,8163"/>
 <path fill="rgb(255,193,49)" stroke="none" d="M 6559,7941 L 6559,7497 6892,7497 6892,7941 6559,7941 Z"/>
 <path fill="rgb(255,193,49)" stroke="none" d="M 6559,6609 L 6559,6165 12313,6165 12313,6609 6559,6609 Z"/>
 <path fill="rgb(255,193,49)" stroke="none" d="M 6559,5277 L 6559,4833 6744,4833 6744,5277 6559,5277 Z"/>
 <path fill="rgb(255,193,49)" stroke="none" d="M 6559,3946 L 6559,3502 6802,3502 6802,3946 6559,3946 Z"/>
 <path fill="rgb(255,193,49)" stroke="none" d="M 6559,2614 L 6559,2170 7063,2170 7063,2614 6559,2614 Z"/>
 <path fill="rgb(255,193,49)" stroke="none" d="M 6559,1282 L 6559,838 6706,838 6706,1282 6559,1282 Z"/>
 <path fill="rgb(27,28,38)" stroke="none" d="M 6559,7497 L 6559,7053 9592,7053 9592,7497 6559,7497 Z"/>
 <path fill="rgb(27,28,38)" stroke="none" d="M 6559,6165 L 6559,5721 10296,5721 10296,6165 6559,6165 Z"/>
 <path fill="rgb(27,28,38)" stroke="none" d="M 6559,4833 L 6559,4390 7125,4390 7125,4833 6559,4833 Z"/>
 <path fill="rgb(27,28,38)" stroke="none" d="M 6559,3502 L 6559,3058 7406,3058 7406,3502 6559,3502 Z"/>
 <path fill="rgb(27,28,38)" stroke="none" d="M 6559,2170 L 6559,1726 7739,1726 7739,2170 6559,2170 Z"/>
 <path fill="rgb(27,28,38)" stroke="none" d="M 6559,838 L 6559,394 7235,394 7235,838 6559,838 Z"/>
 <text class="SVGTextShape"><tspan class="TextParagraph"><tspan class="TextPosition" x="3351" y="7618"><tspan font-family="Liberation Sans, sans-serif" font-size="353px" font-weight="400" fill="rgb(0,0,0)" stroke="none" style="white-space: pre">Linux: Flatpak App</tspan></tspan></tspan></text>
 <text class="SVGTextShape"><tspan class="TextParagraph"><tspan class="TextPosition" x="2656" y="6286"><tspan font-family="Liberation Sans, sans-serif" font-size="353px" font-weight="400" fill="rgb(0,0,0)" stroke="none" style="white-space: pre">Linux: Flatpak Platform</tspan></tspan></tspan></text>
 <text class="SVGTextShape"><tspan class="TextParagraph"><tspan class="TextPosition" x="4025" y="4954"><tspan font-family="Liberation Sans, sans-serif" font-size="353px" font-weight="400" fill="rgb(0,0,0)" stroke="none" style="white-space: pre">Linux: Debian </tspan></tspan></tspan></text>
 <text class="SVGTextShape"><tspan class="TextParagraph"><tspan class="TextPosition" x="314" y="3623"><tspan font-family="Liberation Sans, sans-serif" font-size="353px" font-weight="400" fill="rgb(0,0,0)" stroke="none" style="white-space: pre">MacOS: Apple Silicon / ARM (arm64) </tspan></tspan></tspan></text>
 <text class="SVGTextShape"><tspan class="TextParagraph"><tspan class="TextPosition" x="403" y="2291"><tspan font-family="Liberation Sans, sans-serif" font-size="353px" font-weight="400" fill="rgb(0,0,0)" stroke="none" style="white-space: pre">MacOS: Universal (arm64 + x86_64) </tspan></tspan></tspan></text>
 <text class="SVGTextShape"><tspan class="TextParagraph"><tspan class="TextPosition" x="3927" y="959"><tspan font-family="Liberation Sans, sans-serif" font-size="353px" font-weight="400" fill="rgb(0,0,0)" stroke="none" style="white-space: pre">Windows NSIS</tspan></tspan></tspan></text>
 <text class="SVGTextShape"><tspan class="TextParagraph"><tspan class="TextPosition" x="6460" y="8732"><tspan font-family="Liberation Sans, sans-serif" font-size="353px" font-weight="400" fill="rgb(0,0,0)" stroke="none" style="white-space: pre">0</tspan></tspan></tspan></text>
 <text class="SVGTextShape"><tspan class="TextParagraph"><tspan class="TextPosition" x="7370" y="8732"><tspan font-family="Liberation Sans, sans-serif" font-size="353px" font-weight="400" fill="rgb(0,0,0)" stroke="none" style="white-space: pre">200</tspan></tspan></tspan></text>
 <text class="SVGTextShape"><tspan class="TextParagraph"><tspan class="TextPosition" x="8477" y="8732"><tspan font-family="Liberation Sans, sans-serif" font-size="353px" font-weight="400" fill="rgb(0,0,0)" stroke="none" style="white-space: pre">400</tspan></tspan></tspan></text>
 <text class="SVGTextShape"><tspan class="TextParagraph"><tspan class="TextPosition" x="9586" y="8732"><tspan font-family="Liberation Sans, sans-serif" font-size="353px" font-weight="400" fill="rgb(0,0,0)" stroke="none" style="white-space: pre">600</tspan></tspan></tspan></text>
 <text class="SVGTextShape"><tspan class="TextParagraph"><tspan class="TextPosition" x="10694" y="8732"><tspan font-family="Liberation Sans, sans-serif" font-size="353px" font-weight="400" fill="rgb(0,0,0)" stroke="none" style="white-space: pre">800</tspan></tspan></tspan></text>
 <text class="SVGTextShape"><tspan class="TextParagraph"><tspan class="TextPosition" x="11702" y="8732"><tspan font-family="Liberation Sans, sans-serif" font-size="353px" font-weight="400" fill="rgb(0,0,0)" stroke="none" style="white-space: pre">1000</tspan></tspan></tspan></text>
 <text class="SVGTextShape"><tspan class="TextParagraph"><tspan class="TextPosition" x="12811" y="8732"><tspan font-family="Liberation Sans, sans-serif" font-size="353px" font-weight="400" fill="rgb(0,0,0)" stroke="none" style="white-space: pre">1200</tspan></tspan></tspan></text>
 <path fill="rgb(255,193,49)" stroke="none" d="M 14149,4846 L 14043,4846 14043,4635 14254,4635 14254,4846 14149,4846 Z"/>
 <path fill="rgb(27,28,38)" stroke="none" d="M 14149,4349 L 14043,4349 14043,4138 14254,4138 14254,4349 14149,4349 Z"/>
 <text class="SVGTextShape"><tspan class="TextParagraph"><tspan class="TextPosition" x="14354" y="4363"><tspan font-family="Liberation Sans, sans-serif" font-size="353px" font-weight="400" fill="rgb(0,0,0)" stroke="none" style="white-space: pre">Electron</tspan></tspan></tspan></text>
 <text class="SVGTextShape"><tspan class="TextParagraph"><tspan class="TextPosition" x="14354" y="4860"><tspan font-family="Liberation Sans, sans-serif" font-size="353px" font-weight="400" fill="rgb(0,0,0)" stroke="none" style="white-space: pre">Tauri</tspan></tspan></tspan></text>
</svg>