<svg xmlns="http://www.w3.org/2000/svg" xmlns:xlink="http://www.w3.org/1999/xlink" width="48" height="48" version="1.1"><defs><linearGradient id="a" x1="31.957" x2="-45.041" y1="29.751" y2="-18.592" gradientTransform="matrix(.93766 0 0 .93766 1.5426 1.72)" gradientUnits="userSpaceOnUse"><stop offset="0" stop-color="#364e59"/><stop offset="1" stop-color="#364e59" stop-opacity="0"/></linearGradient></defs><g><path fill="#fff" stroke="#000" stroke-linejoin="round" stroke-opacity=".439" stroke-width=".574" d="m24.015 1.287c-12.549 0-22.728 10.179-22.728 22.728s10.179 22.728 22.728 22.728c14.338-0.34288 9.6144-4.7027 23.698 0.96916-7.5455-13.002-1.083-13.33-0.96916-23.698 0-12.549-10.179-22.728-22.728-22.728z"/><path fill="url(#a)" d="m23.982 5.3106c-10.336 0.12578-18.72 8.6194-18.72 18.965 0 10.346 8.384 18.635 18.72 18.51 9.8277-0.03951 7.5168-5.4897 18.38-0.44319-5.9508-9.2961 0.20175-10.534 0.34034-18.522 0-10.346-8.384-18.635-18.72-18.51z"/><g fill="#fff"><path fill="#fff" d="m21.689 23.636q-1.028-1.1513-2.8578-2.755-2.0148-1.7681-2.7139-2.7755-0.69902-1.028-0.69902-2.241 0-1.8092 1.6859-2.8372 1.6859-1.0485 4.3997-1.0485t4.7287 0.92518q2.0354 0.92518 2.0354 2.5494 0 0.78126-0.49343 1.2952-0.49343 0.51399-1.1513 0.51399-0.94574 0-2.2204-1.4186-1.2952-1.4392-2.1999-2.0148-0.88406-0.59622-2.0765-0.59622-1.5214 0-2.5083 0.67846-0.9663 0.67846-0.9663 1.727 0 0.98686 0.80182 1.8504t4.1325 3.1456q3.5568 2.4466 5.0165 3.8241 1.4803 1.3775 2.4055 3.3512 0.92518 1.9737 0.92518 4.1736 0 3.8652-2.7344 6.8258-2.7139 2.94-6.3529 2.94-3.3101 0-5.5922-2.3643-2.2821-2.3643-2.2821-6.3118 0-3.8035 2.5083-6.3529 2.5288-2.5494 6.209-3.0839zm0.90462 0.94574q-5.9006 0.9663-5.9006 8.1004 0 3.6802 1.4597 5.7155 1.4803 2.0354 3.4334 2.0354 2.0354 0 3.3512-1.9532 1.3158-1.9737 1.3158-5.3249 0-4.852-3.6596-8.5733z" transform="scale(1.1122 .89909)"/></g></g></svg>