<?xml version="1.0" encoding="UTF-8" standalone="no"?>
<svg
   xmlns:dc="http://purl.org/dc/elements/1.1/"
   xmlns:cc="http://creativecommons.org/ns#"
   xmlns:rdf="http://www.w3.org/1999/02/22-rdf-syntax-ns#"
   xmlns:svg="http://www.w3.org/2000/svg"
   xmlns="http://www.w3.org/2000/svg"
   xmlns:xlink="http://www.w3.org/1999/xlink"
   xmlns:sodipodi="http://sodipodi.sourceforge.net/DTD/sodipodi-0.dtd"
   xmlns:inkscape="http://www.inkscape.org/namespaces/inkscape"
   inkscape:export-ydpi="183.83"
   inkscape:export-xdpi="183.83"
   inkscape:export-filename="/home/bpetersen/projects/messenger-android/MessengerProj/src/main/res/drawable-xhdpi/ic_launcher.png"
   sodipodi:docname="delta-transparent.svg"
   inkscape:version="1.0beta1 (32d4812, 2019-09-19)"
   version="1.1"
   id="svg2985"
   height="48px"
   width="48px">
  <defs
     id="defs2987">
    <linearGradient
       id="linearGradient4409">
      <stop
         id="stop4411"
         offset="0"
         style="stop-color:#f9f9f9;stop-opacity:1" />
      <stop
         id="stop4413"
         offset="1"
         style="stop-color:#cccccc;stop-opacity:0;" />
    </linearGradient>
    <linearGradient
       id="linearGradient4399">
      <stop
         id="stop4401"
         offset="0"
         style="stop-color:#f9f9f9;stop-opacity:1;" />
      <stop
         id="stop4403"
         offset="1"
         style="stop-color:#f9f9f9;stop-opacity:0;" />
    </linearGradient>
    <linearGradient
       id="linearGradient4375">
      <stop
         id="stop4377"
         offset="0"
         style="stop-color:#364e59;stop-opacity:1;" />
      <stop
         id="stop4379"
         offset="1"
         style="stop-color:#364e59;stop-opacity:0;" />
    </linearGradient>
    <linearGradient
       id="linearGradient4367">
      <stop
         id="stop4369"
         offset="0"
         style="stop-color:#dc000f;stop-opacity:1;" />
      <stop
         id="stop4371"
         offset="1"
         style="stop-color:#00ff00;stop-opacity:0;" />
    </linearGradient>
    <linearGradient
       id="linearGradient4359">
      <stop
         id="stop4361"
         offset="0"
         style="stop-color:#dc000f;stop-opacity:1;" />
      <stop
         id="stop4363"
         offset="1"
         style="stop-color:#000000;stop-opacity:0;" />
    </linearGradient>
    <linearGradient
       gradientUnits="userSpaceOnUse"
       y2="24.359164"
       x2="36.001561"
       y1="3.8388948"
       x1="16.345125"
       id="linearGradient4415"
       xlink:href="#linearGradient4409"
       inkscape:collect="always" />
  </defs>
  <sodipodi:namedview
     inkscape:pagecheckerboard="true"
     inkscape:document-rotation="0"
     inkscape:window-maximized="1"
     inkscape:window-y="23"
     inkscape:window-x="45"
     inkscape:window-height="855"
     inkscape:window-width="1395"
     inkscape:snap-bbox-edge-midpoints="true"
     inkscape:bbox-paths="true"
     inkscape:bbox-nodes="true"
     inkscape:snap-bbox="true"
     inkscape:snap-global="false"
     inkscape:document-units="px"
     inkscape:grid-bbox="true"
     showgrid="true"
     inkscape:current-layer="layer1"
     inkscape:cy="28.707339"
     inkscape:cx="22.359879"
     inkscape:zoom="9.8994949"
     inkscape:pageshadow="2"
     inkscape:pageopacity="0.0"
     borderopacity="1.0"
     bordercolor="#666666"
     pagecolor="#ffffff"
     id="base" />
  <metadata
     id="metadata2990">
    <rdf:RDF>
      <cc:Work
         rdf:about="">
        <dc:format>image/svg+xml</dc:format>
        <dc:type
           rdf:resource="http://purl.org/dc/dcmitype/StillImage" />
        <dc:title></dc:title>
      </cc:Work>
    </rdf:RDF>
  </metadata>
  <g
     inkscape:groupmode="layer"
     inkscape:label="Layer 1"
     id="layer1">
    <path
       d="M 24.015625 1.2871094 C 11.466204 1.2871094 1.2871094 11.466203 1.2871094 24.015625 C 1.2871094 36.565047 11.466204 46.744141 24.015625 46.744141 C 38.353367 46.401264 33.629687 42.041025 47.712891 47.712891 C 40.167438 34.711336 46.630329 34.383541 46.744141 24.015625 C 46.744141 11.466203 36.565047 1.2871094 24.015625 1.2871094 z M 24 4.7636719 C 34.612549 4.6345328 43.220703 13.143938 43.220703 23.765625 C 43.078418 31.966952 36.761278 33.237209 42.871094 42.78125 C 31.717586 37.600152 34.090255 43.195768 24 43.236328 C 13.387453 43.365468 4.7792969 34.856059 4.7792969 24.234375 C 4.7792969 13.612691 13.387453 4.8928107 24 4.7636719 z "
       style="fill:#ffffff;fill-opacity:1;stroke:none;stroke-width:0.57405078;stroke-linejoin:round;stroke-miterlimit:4;stroke-dasharray:none;stroke-opacity:0.43921569"
       id="path3769" />
    <g
       id="text4383"
       style="font-style:normal;font-weight:normal;font-size:40px;line-height:125%;font-family:Sans;letter-spacing:0px;word-spacing:0px;fill:#000000;fill-opacity:1;stroke:none" />
    <g
       id="text4421"
       style="font-style:normal;font-weight:normal;font-size:40px;line-height:125%;font-family:Sans;letter-spacing:0px;word-spacing:0px;fill:#000000;fill-opacity:1;stroke:none" />
    <g
       id="text3797"
       style="font-style:normal;font-weight:normal;font-size:42.10587310999999744px;line-height:125%;font-family:Sans;letter-spacing:0px;word-spacing:0px;fill:#ffffff;fill-opacity:1;stroke:none"
       transform="scale(1.1122373,0.89908874)">
      <path
         id="path4161"
         style="font-family:'Times New Roman';-inkscape-font-specification:'Times New Roman';fill:#ffffff;fill-opacity:1"
         d="m 21.688854,23.636251 q -1.027975,-1.151333 -2.857771,-2.754974 -2.014832,-1.768118 -2.713855,-2.775534 -0.699024,-1.027975 -0.699024,-2.240986 0,-1.809237 1.68588,-2.837212 1.68588,-1.048535 4.399735,-1.048535 2.713855,0 4.728687,0.925178 2.035391,0.925177 2.035391,2.549379 0,0.781261 -0.493428,1.295249 -0.493428,0.513987 -1.151333,0.513987 -0.945737,0 -2.220426,-1.418606 -1.295249,-1.439165 -2.199868,-2.014832 -0.884059,-0.596225 -2.07651,-0.596225 -1.521404,0 -2.50826,0.678463 -0.966297,0.678464 -0.966297,1.726999 0,0.986857 0.801821,1.850356 0.801821,0.863499 4.132461,3.145605 3.556795,2.446581 5.01652,3.824068 1.480285,1.377487 2.405462,3.3512 0.925178,1.973713 0.925178,4.17358 0,3.865188 -2.734414,6.825757 -2.713855,2.94001 -6.352888,2.94001 -3.310081,0 -5.592187,-2.364344 -2.282105,-2.364343 -2.282105,-6.311769 0,-3.803509 2.50826,-6.352888 2.528819,-2.549379 6.208971,-3.083926 z m 0.904619,0.945737 q -5.900579,0.966297 -5.900579,8.100447 0,3.680152 1.459725,5.715543 1.480285,2.035391 3.433438,2.035391 2.035391,0 3.3512,-1.953153 1.315808,-1.973713 1.315808,-5.324913 0,-4.852044 -3.659592,-8.573315 z" />
    </g>
  </g>
</svg>
