<?xml version="1.0" encoding="UTF-8" standalone="no"?>
<!-- Created with Inkscape (http://www.inkscape.org/) -->

<svg
   xmlns:svg="http://www.w3.org/2000/svg"
   xmlns="http://www.w3.org/2000/svg"
   version="1.0"
   width="240"
   height="178.57458"
   id="svg2">
  <defs
     id="defs4" />
  <g
     transform="translate(-2.2326894e-4,-2.2621191e-4)"
     id="layer1">
    <g
       id="g4908">
      <g
         transform="matrix(0.34837715,0,0,0.34837715,-111.02477,-251.89722)"
         id="g3771">
        <path
           d="m 676.13907,1208.4325 15.91808,-7.1116 18.381,-15.6 14.36855,-12.051 10.197,-10.1971 11.58756,-13.4415 12.97804,-13.905 5.0985,-8.8066 6.48902,-10.6605 4.63502,-9.7335 0,-7.8795 -4.1715,-7.4161 -5.56202,-3.708 -9.73353,-2.3175 -6.48902,0.4636 -6.95254,3.2445 -7.63129,5.2342 -7.20078,7.7438 -5.94597,6.9525 -4.71456,6.4891 -6.48896,8.8065 -5.56202,7.8795 -4.63503,10.6606 -3.24451,11.124 -0.6788,14.832 0.6788,11.5875 3.70803,10.6606 7.87949,8.8065 6.95254,2.781 6.48901,0.927 1.854,9.27 6.02554,0.4636 9.73348,-9.2701 6.02554,-7.8795 12.51456,-12.051 8.34301,-10.6605 8.34301,-6.9526 8.34301,-6.489 8.34306,-10.197 6.95249,-11.124 4.1715,-8.8066 2.31751,-8.8065 0.92705,-8.8065 0.46358,-11.1241 0.46357,-7.8795 -1.85404,-8.8065 -1.39047,0.4636 -3.70803,7.8795 -1.85399,10.6605 -1.39052,9.27 -2.31746,10.197 -1.39052,11.5876 c 2.69601,9.6202 -0.45631,10.5154 -1.39052,15.2955 l -0.92699,16.2226 0.92699,13.905 0,18.5401 0,11.124 0,10.197 -0.92699,10.6606 -6.02555,1.854 -6.95249,-7.8795 -6.95254,-9.2701 -5.0985,-10.197 -4.63502,-8.8065 -5.56203,-11.1241 -7.87948,-6.9525 -8.80658,-12.5145 12.51456,9.27 8.80653,10.6606 10.66052,2.3175 9.73353,0.4635 9.73352,0.927 11.58752,0 9.73353,-1.8539 8.34306,-2.3176 11.12399,-4.1715 8.34306,-6.9525 6.02549,-8.343 5.56203,-13.4415"
           id="path2516"
           style="fill:none;stroke:#40428b;stroke-width:6.2294569;stroke-linecap:round;stroke-linejoin:round;stroke-miterlimit:4;stroke-opacity:1;stroke-dasharray:none" />
        <path
           d="m 365.94088,910.01008 c -5e-5,0.27046 -0.0675,0.50718 -0.20298,0.70974 -0.13497,0.20297 -0.37169,0.37169 -0.70969,0.50718 -0.33795,0.10123 -0.79431,0.18585 -1.36882,0.25333 -0.54077,0.10123 -1.21672,0.1521 -2.02779,0.1521 -0.87877,0 -1.58851,-0.0519 -2.12923,-0.1521 -0.54077,-0.0675 -0.98015,-0.1521 -1.31805,-0.25333 -0.33795,-0.13497 -0.57461,-0.30421 -0.70974,-0.50718 -0.13497,-0.20298 -0.20298,-0.43918 -0.20298,-0.70974 l 0,-29.0992 -29.85965,0 0,29.0992 c 0,0.27046 -0.0675,0.50718 -0.20298,0.70974 -0.13497,0.20297 -0.37169,0.37169 -0.70974,0.50718 -0.33795,0.10123 -0.79426,0.18585 -1.36877,0.25333 -0.54077,0.10123 -1.23359,0.1521 -2.07851,0.1521 -0.81113,0 -1.504,-0.0519 -2.07851,-0.1521 -0.57456,-0.0675 -1.03082,-0.1521 -1.36877,-0.25333 -0.33795,-0.13497 -0.57456,-0.30421 -0.70974,-0.50718 -0.13497,-0.20298 -0.20298,-0.43918 -0.20298,-0.70974 l 0,-62.96372 c 0,-0.27046 0.0675,-0.50666 0.20298,-0.70974 0.13497,-0.20246 0.37169,-0.35508 0.70974,-0.45631 0.33795,-0.13497 0.79421,-0.23672 1.36877,-0.30421 0.57451,-0.10122 1.26738,-0.1521 2.07851,-0.1521 0.84492,5e-5 1.53774,0.0519 2.07851,0.1521 0.57451,0.0675 1.03077,0.16924 1.36877,0.30421 0.33795,0.10123 0.57451,0.25333 0.70974,0.45631 0.13497,0.20297 0.20298,0.43969 0.20298,0.70974 l 0,26.26022 29.85965,0 0,-26.26022 c -5e-5,-0.27046 0.0675,-0.50666 0.20298,-0.70974 0.13497,-0.20246 0.37169,-0.35508 0.70974,-0.45631 0.33795,-0.13497 0.77728,-0.23672 1.31805,-0.30421 0.54072,-0.10122 1.25046,-0.1521 2.12923,-0.1521 0.81107,5e-5 1.48702,0.0519 2.02779,0.1521 0.57451,0.0675 1.03077,0.16924 1.36882,0.30421 0.33795,0.10123 0.57446,0.25333 0.70969,0.45631 0.13497,0.20297 0.20298,0.43969 0.20298,0.70974 l 0,62.96372"
           id="text3292"
           style="font-size:20px;font-style:normal;font-variant:normal;font-weight:normal;font-stretch:normal;text-align:start;line-height:125%;writing-mode:lr-tb;text-anchor:start;fill:#40428b;fill-opacity:1;stroke:none;font-family:Calibri;-inkscape-font-specification:Calibri" />
        <path
           d="m 483.9597,877.10873 c -5e-5,5.30615 -0.62528,10.08845 -1.87574,14.3468 -1.25051,4.25846 -3.12625,7.89164 -5.62717,10.89953 -2.46723,2.97415 -5.57656,5.27235 -9.32799,6.89461 -3.75148,1.58846 -8.1282,2.38266 -13.13009,2.38266 -4.9344,0 -9.20973,-0.72661 -12.82598,-2.17989 -3.58246,-1.48708 -6.55661,-3.63318 -8.9224,-6.4383 -2.332,-2.80518 -4.07251,-6.28625 -5.22163,-10.44327 -1.14908,-4.15702 -1.72364,-8.93927 -1.72364,-14.34681 0,-5.17091 0.62528,-9.8687 1.87574,-14.09336 1.25051,-4.22456 3.1262,-7.80702 5.62722,-10.74743 2.50092,-2.97404 5.62718,-5.25537 9.37866,-6.84388 3.75143,-1.62221 8.12814,-2.43333 13.13008,-2.43339 4.83297,6e-5 9.04066,0.72672 12.62317,2.1799 3.58245,1.45333 6.55655,3.58256 8.9224,6.38763 2.39953,2.77144 4.17389,6.21871 5.32302,10.34189 1.18287,4.08948 1.7743,8.78727 1.77435,14.09331 m -9.17588,0.60836 c -6e-5,-3.71764 -0.33795,-7.16491 -1.0139,-10.34188 -0.64221,-3.21067 -1.74061,-5.982 -3.29517,-8.31404 -1.52093,-2.36574 -3.56564,-4.20769 -6.1342,-5.52579 -2.56856,-1.31805 -5.74548,-1.97708 -9.53071,-1.97713 -3.78533,5e-5 -6.9622,0.7098 -9.53076,2.12918 -2.56861,1.41954 -4.66399,3.3122 -6.28624,5.67789 -1.58846,2.36584 -2.73754,5.13722 -3.44728,8.31409 -0.67595,3.14313 -1.01395,6.45522 -1.0139,9.9363 -5e-5,3.85286 0.32082,7.40158 0.96318,10.64603 0.64215,3.24451 1.72364,6.04969 3.24451,8.41543 1.52087,2.33205 3.54866,4.15707 6.08348,5.47512 2.56856,1.28431 5.77922,1.92646 9.63214,1.92646 3.81902,0 7.02973,-0.70974 9.63214,-2.12923 2.60231,-1.41948 4.69774,-3.32897 6.2862,-5.72861 1.58841,-2.43333 2.72061,-5.2385 3.39661,-8.41542 0.6759,-3.17687 1.01384,-6.53969 1.0139,-10.0884"
           id="text3300"
           style="font-size:20px;font-style:normal;font-variant:normal;font-weight:normal;font-stretch:normal;text-align:start;line-height:125%;writing-mode:lr-tb;text-anchor:start;fill:#40428b;fill-opacity:1;stroke:none;font-family:Calibri;-inkscape-font-specification:Calibri" />
        <path
           d="m 579.82497,907.83018 c -5e-5,0.67595 -0.0363,1.25051 -0.10123,1.72364 -0.0675,0.43918 -0.18585,0.82805 -0.35508,1.166 -0.13497,0.3042 -0.32134,0.54077 -0.55764,0.70974 -0.20298,0.13497 -0.45631,0.20298 -0.76046,0.20298 l -28.99781,0 c -0.77733,0 -1.52087,-0.25333 -2.23056,-0.76041 -0.67595,-0.54077 -1.01395,-1.47015 -1.01395,-2.78825 l 0,-60.73316 c 0,-0.27046 0.0675,-0.50666 0.20298,-0.70974 0.13497,-0.20298 0.37169,-0.35456 0.70974,-0.45631 0.33795,-0.13497 0.7942,-0.23672 1.36877,-0.3042 0.57451,-0.10123 1.26738,-0.15211 2.07851,-0.15211 0.84492,5e-5 1.53774,0.0519 2.07851,0.15211 0.57451,0.0675 1.03077,0.16923 1.36877,0.3042 0.33794,0.10123 0.57451,0.25333 0.70974,0.45631 0.13497,0.20297 0.20297,0.43917 0.20297,0.70974 l 0,56.72824 23.52269,0 c 0.30421,0 0.55764,0.0846 0.76046,0.25333 0.23672,0.13497 0.42257,0.35508 0.55764,0.65908 0.16872,0.27046 0.28708,0.64215 0.35508,1.11528 0.0675,0.47343 0.10123,1.04769 0.10123,1.72363"
           id="text3304"
           style="font-size:20px;font-style:normal;font-variant:normal;font-weight:normal;font-stretch:normal;text-align:start;line-height:125%;writing-mode:lr-tb;text-anchor:start;fill:#40428b;fill-opacity:1;stroke:none;font-family:Calibri;-inkscape-font-specification:Calibri" />
        <path
           d="m 676.46144,907.83018 c -5e-5,0.67595 -0.0363,1.25051 -0.10123,1.72364 -0.0675,0.43918 -0.18584,0.82805 -0.35508,1.166 -0.13497,0.3042 -0.32133,0.54077 -0.55769,0.70974 -0.20297,0.13497 -0.45631,0.20298 -0.76041,0.20298 l -28.99781,0 c -0.77733,0 -1.52087,-0.25333 -2.23061,-0.76041 -0.67595,-0.54077 -1.0139,-1.47015 -1.0139,-2.78825 l 0,-60.73316 c 0,-0.27046 0.0675,-0.50666 0.20298,-0.70974 0.13497,-0.20298 0.37169,-0.35456 0.70974,-0.45631 0.33795,-0.13497 0.79426,-0.23672 1.36877,-0.3042 0.57456,-0.10123 1.26738,-0.15211 2.07856,-0.15211 0.84487,5e-5 1.53774,0.0519 2.07851,0.15211 0.57451,0.0675 1.03077,0.16923 1.36877,0.3042 0.33795,0.10123 0.57451,0.25333 0.70974,0.45631 0.13497,0.20297 0.20298,0.43917 0.20298,0.70974 l 0,56.72824 23.52269,0 c 0.3042,0 0.55759,0.0846 0.76041,0.25333 0.23672,0.13497 0.42256,0.35508 0.55769,0.65908 0.16871,0.27046 0.28707,0.64215 0.35508,1.11528 0.0675,0.47343 0.10123,1.04769 0.10123,1.72363"
           id="text3308"
           style="font-size:20px;font-style:normal;font-variant:normal;font-weight:normal;font-stretch:normal;text-align:start;line-height:125%;writing-mode:lr-tb;text-anchor:start;fill:#40428b;fill-opacity:1;stroke:none;font-family:Calibri;-inkscape-font-specification:Calibri" />
        <path
           d="m 787.78848,906.36003 c 0.40543,1.21666 0.65897,2.17989 0.76041,2.88964 0.10123,0.70974 -0.0363,1.25046 -0.40544,1.62225 -0.37169,0.33795 -1.03087,0.54077 -1.97712,0.60836 -0.94636,0.10123 -2.24759,0.1521 -3.90359,0.1521 -1.72369,0 -3.07553,-0.0363 -4.05563,-0.10123 -0.94636,-0.0363 -1.67297,-0.11836 -2.1799,-0.25333 -0.50718,-0.16923 -0.86184,-0.38882 -1.06461,-0.65902 -0.20298,-0.27047 -0.37169,-0.62523 -0.50666,-1.06462 l -4.41051,-13.1808 -24.63797,0 -4.15707,12.82593 c -0.13497,0.47344 -0.32082,0.87872 -0.55764,1.21672 -0.20298,0.3042 -0.55764,0.55764 -1.06462,0.76041 -0.47292,0.16923 -1.16599,0.28707 -2.07851,0.35508 -0.87871,0.0675 -2.04471,0.10122 -3.49794,0.10122 -1.55467,0 -2.77138,-0.0519 -3.6501,-0.1521 -0.87872,-0.10123 -1.48707,-0.33795 -1.82502,-0.70974 -0.33795,-0.40543 -0.45631,-0.96323 -0.35508,-1.67297 0.10123,-0.70975 0.35508,-1.65605 0.76041,-2.83892 l 20.22751,-58.19839 c 0.20298,-0.57446 0.43918,-1.03077 0.70974,-1.36877 0.27047,-0.37169 0.69282,-0.6421 1.26739,-0.81113 0.6083,-0.20297 1.4363,-0.32081 2.48405,-0.35507 1.04769,-0.0675 2.43338,-0.10123 4.15702,-0.10123 1.99399,5e-5 3.58245,0.0363 4.76537,0.10123 1.18287,0.0363 2.09539,0.1521 2.73759,0.35507 0.6759,0.16924 1.14902,0.43918 1.41943,0.81113 0.30421,0.37169 0.55764,0.87877 0.76047,1.52087 l 20.27818,58.14767 m -30.1131,-48.10999 -0.0519,0 -9.27727,27.88248 18.60526,0 -9.27727,-27.88248"
           id="text3312"
           style="font-size:20px;font-style:normal;font-variant:normal;font-weight:bold;font-stretch:normal;text-align:start;line-height:125%;writing-mode:lr-tb;text-anchor:start;fill:#40428b;fill-opacity:1;stroke:none;font-family:Calibri;-inkscape-font-specification:Calibri Bold" />
        <path
           d="m 895.73713,907.7288 c -5e-5,0.67594 -0.11836,1.25051 -0.35508,1.72364 -0.20298,0.47291 -0.49005,0.86184 -0.8618,1.16599 -0.33794,0.30421 -0.72671,0.52385 -1.16599,0.65903 -0.4397,0.13497 -0.87877,0.20297 -1.31811,0.20297 l -2.78825,0 c -0.87877,0 -1.6561,-0.0846 -2.332,-0.25333 -0.64215,-0.20297 -1.26743,-0.54077 -1.87568,-1.01389 -0.57462,-0.50718 -1.16606,-1.18292 -1.77436,-2.02785 -0.57462,-0.84492 -1.21672,-1.9264 -1.92641,-3.24451 L 860.65568,867.629 c -1.08154,-1.92635 -2.17994,-3.93727 -3.29523,-6.03276 -1.08148,-2.12912 -2.09538,-4.19076 -3.04168,-6.18481 l -0.10123,0 c 0.0675,2.43343 0.11836,4.91748 0.1521,7.4522 0.0363,2.53481 0.0519,5.05271 0.0519,7.55363 l 0,39.59313 c 0,0.23672 -0.0675,0.47344 -0.20297,0.70974 -0.13498,0.20298 -0.37169,0.37169 -0.70975,0.50718 -0.3042,0.10123 -0.72666,0.18585 -1.26738,0.25333 -0.50718,0.10123 -1.16605,0.1521 -1.97713,0.1521 -0.81117,0 -1.48707,-0.0519 -2.02784,-0.1521 -0.50718,-0.0675 -0.91251,-0.1521 -1.21666,-0.25333 -0.30421,-0.13497 -0.5239,-0.3042 -0.65908,-0.50718 -0.13497,-0.23672 -0.20298,-0.47292 -0.20298,-0.70974 l 0,-60.53034 c 0,-1.35184 0.37169,-2.31502 1.11534,-2.88963 0.74348,-0.57452 1.55461,-0.8618 2.43338,-0.86185 l 4.15702,0 c 0.9801,5e-5 1.79117,0.0846 2.43338,0.25333 0.67589,0.16923 1.26733,0.45631 1.7743,0.86179 0.54077,0.3717 1.04769,0.91262 1.52087,1.62226 0.50719,0.67605 1.04769,1.53784 1.62226,2.58548 l 15.91839,28.79504 c 0.98005,1.75744 1.92635,3.48113 2.83892,5.17092 0.91251,1.6561 1.79123,3.29523 2.6362,4.91748 0.84487,1.62226 1.67287,3.22759 2.48405,4.81605 0.84487,1.55466 1.67292,3.12625 2.4841,4.71466 l 0.0519,0 c -0.0675,-2.66995 -0.11836,-5.44128 -0.1521,-8.31404 -5e-5,-2.90651 -5e-5,-5.69476 0,-8.36476 l 0,-35.58821 c -5e-5,-0.23672 0.0675,-0.45631 0.20297,-0.65903 0.13498,-0.20246 0.35508,-0.37169 0.65903,-0.50718 0.33795,-0.16871 0.76041,-0.28707 1.26738,-0.35508 0.54072,-0.0675 1.23354,-0.10123 2.07851,-0.10123 0.74349,1.1e-4 1.38564,0.0363 1.92646,0.10123 0.54067,0.0675 0.96313,0.18585 1.26738,0.35508 0.30421,0.13549 0.5238,0.30421 0.65903,0.50718 0.13497,0.20298 0.20298,0.42257 0.20298,0.65903 l 0,60.53038"
           id="text3316"
           style="font-size:20px;font-style:normal;font-variant:normal;font-weight:normal;font-stretch:normal;text-align:start;line-height:125%;writing-mode:lr-tb;text-anchor:start;fill:#40428b;fill-opacity:1;stroke:none;font-family:Calibri;-inkscape-font-specification:Calibri" />
        <path
           d="m 1005.9853,877.86919 c 0,5.67789 -0.7267,10.64604 -2.1799,14.90445 -1.4533,4.22466 -3.5825,7.73952 -6.3876,10.54465 -2.77138,2.77138 -6.18492,4.84989 -10.2405,6.23553 -4.05564,1.38569 -8.88861,2.07851 -14.49891,2.07851 l -13.89054,0 c -0.77734,0 -1.52087,-0.25333 -2.23056,-0.76041 -0.67595,-0.54077 -1.01395,-1.47015 -1.01395,-2.78825 l 0,-58.50254 c 0,-1.31805 0.33795,-2.23057 1.01395,-2.73759 0.70969,-0.54067 1.45322,-0.81102 2.23056,-0.81113 l 14.85377,0 c 5.67784,1.1e-4 10.47702,0.74364 14.39752,2.23061 3.92041,1.45334 7.19871,3.56564 9.83491,6.33697 2.66985,2.73759 4.68085,6.06661 6.03275,9.98696 1.3857,3.92051 2.0785,8.34789 2.0785,13.28224 m -9.17586,0.35508 c -5e-5,-3.54866 -0.43918,-6.84383 -1.31805,-9.88563 -0.87877,-3.07548 -2.26446,-5.72855 -4.15707,-7.95917 -1.85887,-2.23056 -4.22466,-3.97112 -7.09732,-5.22163 -2.87282,-1.25046 -6.57359,-1.87569 -11.10235,-1.87574 l -8.87168,0 0,51.05029 8.97312,0 c 4.19076,0 7.72255,-0.52384 10.59532,-1.57153 2.87271,-1.04769 5.2723,-2.65308 7.19876,-4.8161 1.9264,-2.16297 3.36276,-4.86671 4.30912,-8.11127 0.98005,-3.27825 1.4701,-7.14799 1.47015,-11.60922"
           id="text3320"
           style="font-size:20px;font-style:normal;font-variant:normal;font-weight:normal;font-stretch:normal;text-align:start;line-height:125%;writing-mode:lr-tb;text-anchor:start;fill:#40428b;fill-opacity:1;stroke:none;font-family:Calibri;-inkscape-font-specification:Calibri" />
        <path
           d="m 359.48815,1019.9249 c -5e-5,3.0756 -0.57462,5.8132 -1.72369,8.2127 -1.11534,2.3996 -2.68687,4.4443 -4.71466,6.1341 -1.99405,1.6561 -4.35985,2.9066 -7.09738,3.7515 -2.70374,0.845 -5.62722,1.2674 -8.7703,1.2674 -2.19681,0 -4.24153,-0.1858 -6.13414,-0.5576 -1.85887,-0.3717 -3.53179,-0.8281 -5.01887,-1.3688 -1.45328,-0.5408 -2.68687,-1.0984 -3.70076,-1.673 -0.9801,-0.5745 -1.67292,-1.0646 -2.07851,-1.4701 -0.37169,-0.4055 -0.65903,-0.9125 -0.8618,-1.5209 -0.16923,-0.6421 -0.25333,-1.4871 -0.25333,-2.5348 0,-0.7435 0.0363,-1.3518 0.10123,-1.825 0.0675,-0.5072 0.16923,-0.9125 0.30421,-1.2167 0.13497,-0.3042 0.3042,-0.5072 0.50718,-0.6084 0.20297,-0.1349 0.43917,-0.2029 0.70974,-0.2029 0.47292,0 1.1322,0.287 1.97713,0.8618 0.87871,0.5746 1.99399,1.1998 3.34589,1.8757 1.35184,0.676 2.9741,1.3181 4.86676,1.9265 1.92641,0.5745 4.1401,0.8618 6.64112,0.8618 1.89256,0 3.61625,-0.2534 5.17092,-0.7604 1.58841,-0.5072 2.9403,-1.2167 4.05563,-2.1293 1.14908,-0.9463 2.0278,-2.0954 2.63616,-3.4473 0.6083,-1.3518 0.91251,-2.8896 0.91251,-4.6132 0,-1.8588 -0.42257,-3.4473 -1.26739,-4.7654 -0.84492,-1.3181 -1.96025,-2.4672 -3.34589,-3.4473 -1.38569,-1.0139 -2.97415,-1.9264 -4.76538,-2.7376 -1.75743,-0.8448 -3.56558,-1.6898 -5.4244,-2.5347 -1.85887,-0.8787 -3.66697,-1.8419 -5.4244,-2.8897 -1.75749,-1.0476 -3.32903,-2.2812 -4.71467,-3.7007 -1.38569,-1.41948 -2.51789,-3.07552 -3.39661,-4.96819 -0.84492,-1.92641 -1.26738,-4.22456 -1.26738,-6.89455 0,-2.73754 0.49005,-5.17092 1.47015,-7.3002 1.0139,-2.16292 2.39959,-3.97107 4.15702,-5.4244 1.79123,-1.45318 3.90354,-2.55159 6.33697,-3.29518 2.46712,-0.77728 5.1202,-1.16595 7.95917,-1.166 1.45323,5e-5 2.90651,0.13497 4.35979,0.40544 1.48702,0.23672 2.87271,0.57461 4.15702,1.01394 1.31805,0.40544 2.48405,0.87877 3.49799,1.41944 1.0139,0.50718 1.67292,0.92948 1.97713,1.26738 0.33795,0.30421 0.55764,0.55774 0.65902,0.76046 0.10123,0.16924 0.18585,0.40544 0.25334,0.70974 0.0675,0.27047 0.11836,0.60841 0.1521,1.0139 0.0363,0.40543 0.0519,0.92949 0.0519,1.57154 -5e-5,0.60841 -0.0363,1.14918 -0.10123,1.62225 -0.0363,0.47344 -0.10123,0.87882 -0.20297,1.21672 -0.10123,0.3042 -0.25334,0.54082 -0.45631,0.70974 -0.16924,0.13497 -0.37169,0.20298 -0.60836,0.20298 -0.37169,5e-5 -0.96323,-0.23672 -1.77431,-0.70975 -0.77738,-0.47292 -1.74061,-0.99697 -2.88963,-1.57153 -1.14913,-0.60831 -2.51795,-1.14908 -4.10636,-1.62226 -1.55466,-0.50666 -3.31215,-0.76041 -5.2723,-0.76046 -1.82507,5e-5 -3.41353,0.25333 -4.76538,0.76046 -1.35189,0.47344 -2.46723,1.11534 -3.34589,1.92641 -0.87877,0.81118 -1.53779,1.77441 -1.97713,2.88964 -0.43917,1.11538 -0.65907,2.29825 -0.65907,3.54866 0,1.82513 0.42256,3.39666 1.26738,4.71471 0.84492,1.3181 1.9602,2.4841 3.34589,3.498 1.41949,1.01395 3.02482,1.94333 4.8161,2.78825 1.79123,0.84492 3.61625,1.70676 5.47512,2.58546 1.85877,0.8449 3.68384,1.7913 5.47507,2.8389 1.79123,1.014 3.37969,2.2307 4.76538,3.6501 1.41943,1.3857 2.55164,3.0418 3.39661,4.9681 0.87867,1.8927 1.31805,4.1402 1.3181,6.7425"
           id="text3324"
           style="font-size:20px;font-style:normal;font-variant:normal;font-weight:normal;font-stretch:normal;text-align:start;line-height:125%;writing-mode:lr-tb;text-anchor:start;fill:#40428b;fill-opacity:1;stroke:none;font-family:Calibri;-inkscape-font-specification:Calibri" />
        <path
           d="m 448.99598,977.13798 c -5e-5,0.6422 -0.0363,1.19989 -0.10122,1.67297 -0.0675,0.47344 -0.18585,0.86189 -0.35508,1.166 -0.13497,0.27046 -0.32134,0.47343 -0.55764,0.60835 -0.20298,0.13498 -0.43918,0.20298 -0.70975,0.20298 l -18.4531,0 0,56.88032 c -5e-5,0.2704 -0.0675,0.5072 -0.20298,0.7097 -0.13497,0.203 -0.37169,0.3717 -0.70974,0.5072 -0.33795,0.1012 -0.79426,0.1858 -1.36877,0.2533 -0.54077,0.1013 -1.23359,0.1521 -2.07851,0.1521 -0.81112,0 -1.504,-0.052 -2.07851,-0.1521 -0.57456,-0.067 -1.03082,-0.1521 -1.36877,-0.2533 -0.33794,-0.135 -0.57456,-0.3042 -0.70974,-0.5072 -0.13497,-0.203 -0.20297,-0.4392 -0.20297,-0.7097 l 0,-56.88032 -18.45316,0 c -0.27046,5e-5 -0.52385,-0.0675 -0.76041,-0.20298 -0.20298,-0.13497 -0.37169,-0.33794 -0.50718,-0.60835 -0.13497,-0.30421 -0.25333,-0.69277 -0.35508,-1.166 -0.0675,-0.47292 -0.10123,-1.03077 -0.10123,-1.67297 0,-0.64205 0.0363,-1.19969 0.10123,-1.67293 0.10123,-0.50718 0.21959,-0.91246 0.35508,-1.21671 0.13497,-0.30421 0.3042,-0.5238 0.50718,-0.65903 0.23672,-0.13497 0.49005,-0.20297 0.76041,-0.20297 l 45.62589,0 c 0.27046,5e-5 0.50666,0.0675 0.70974,0.20297 0.23672,0.13497 0.42257,0.35508 0.55764,0.65903 0.16924,0.3042 0.28708,0.70979 0.35508,1.21671 0.0675,0.47344 0.10123,1.03088 0.10123,1.67293"
           id="text3328"
           style="font-size:20px;font-style:normal;font-variant:normal;font-weight:normal;font-stretch:normal;text-align:start;line-height:125%;writing-mode:lr-tb;text-anchor:start;fill:#40428b;fill-opacity:1;stroke:none;font-family:Calibri;-inkscape-font-specification:Calibri" />
        <path
           d="m 508.81273,1037.6684 c -5e-5,0.2704 -0.0675,0.5071 -0.20298,0.7097 -0.13497,0.203 -0.37169,0.3717 -0.70974,0.5072 -0.33795,0.1012 -0.7942,0.1858 -1.36877,0.2533 -0.54077,0.1012 -1.23359,0.1521 -2.07851,0.1521 -0.81112,0 -1.50394,-0.052 -2.07851,-0.1521 -0.57456,-0.068 -1.03082,-0.1521 -1.36877,-0.2533 -0.33794,-0.135 -0.57456,-0.3042 -0.70974,-0.5072 -0.13497,-0.203 -0.20297,-0.4392 -0.20297,-0.7097 l 0,-62.96381 c 0,-0.27046 0.0675,-0.50666 0.20297,-0.70969 0.16872,-0.20297 0.42257,-0.35508 0.76046,-0.45631 0.37169,-0.13497 0.828,-0.23671 1.36877,-0.3042 0.57451,-0.10123 1.25046,-0.1521 2.02779,-0.1521 0.84492,1e-4 1.53774,0.0519 2.07851,0.1521 0.57457,0.0675 1.03082,0.16923 1.36877,0.3042 0.33795,0.10123 0.57456,0.25334 0.70974,0.45631 0.13497,0.20298 0.20298,0.43918 0.20298,0.70969 l 0,62.96381"
           id="text3332"
           style="font-size:20px;font-style:normal;font-variant:normal;font-weight:normal;font-stretch:normal;text-align:start;line-height:125%;writing-mode:lr-tb;text-anchor:start;fill:#40428b;fill-opacity:1;stroke:none;font-family:Calibri;-inkscape-font-specification:Calibri" />
        <path
           d="m 597.89423,977.13798 c -5e-5,0.6422 -0.0363,1.19989 -0.10122,1.67297 -0.0675,0.47344 -0.18585,0.86189 -0.35508,1.166 -0.16924,0.27046 -0.37169,0.47343 -0.60836,0.60835 -0.20298,0.13498 -0.42257,0.20298 -0.65903,0.20298 l -24.02961,0 0,22.30602 22.71156,0 c 0.23672,0 0.45631,0.067 0.65903,0.2029 0.23672,0.1013 0.43918,0.2871 0.60836,0.5577 0.16871,0.2704 0.28707,0.6421 0.35508,1.1152 0.0675,0.4392 0.10123,1.014 0.10123,1.7237 -6e-5,0.6422 -0.0363,1.1998 -0.10123,1.673 -0.0675,0.4391 -0.18585,0.8111 -0.35508,1.1152 -0.16924,0.2705 -0.37169,0.4901 -0.60836,0.6591 -0.20298,0.135 -0.42257,0.203 -0.65903,0.203 l -22.71156,0 0,27.3248 c -5e-5,0.2368 -0.0675,0.473 -0.20297,0.7098 -0.13497,0.203 -0.37169,0.3717 -0.70975,0.5072 -0.33794,0.1012 -0.77733,0.1858 -1.31804,0.2533 -0.54077,0.1012 -1.25052,0.1521 -2.12923,0.1521 -0.81113,0 -1.50395,-0.052 -2.07851,-0.1521 -0.57457,-0.068 -1.03082,-0.1521 -1.36877,-0.2533 -0.33795,-0.135 -0.57456,-0.3042 -0.70974,-0.5072 -0.13498,-0.2367 -0.20298,-0.4729 -0.20298,-0.7098 l 0,-60.73312 c 0,-1.318 0.33795,-2.23051 1.0139,-2.73754 0.70974,-0.54071 1.45328,-0.81107 2.23061,-0.81112 l 29.50473,0 c 0.23672,5e-5 0.45631,0.0675 0.65903,0.20297 0.23671,0.13497 0.43917,0.35508 0.60835,0.65903 0.16924,0.3042 0.28708,0.70979 0.35508,1.21671 0.0675,0.47344 0.10123,1.03087 0.10123,1.67292"
           id="text3336"
           style="font-size:20px;font-style:normal;font-variant:normal;font-weight:normal;font-stretch:normal;text-align:start;line-height:125%;writing-mode:lr-tb;text-anchor:start;fill:#40428b;fill-opacity:1;stroke:none;font-family:Calibri;-inkscape-font-specification:Calibri" />
        <path
           d="m 693.52756,977.13798 c -5e-5,0.6422 -0.0363,1.19989 -0.10123,1.67297 -0.0675,0.47344 -0.18585,0.86189 -0.35508,1.166 -0.13497,0.27046 -0.32134,0.47343 -0.55764,0.60835 -0.20298,0.13498 -0.4397,0.20298 -0.70974,0.20298 l -18.45316,0 0,56.88032 c 0,0.2704 -0.0675,0.5072 -0.20298,0.7097 -0.13497,0.203 -0.37169,0.3717 -0.70974,0.5072 -0.33795,0.1012 -0.79425,0.1858 -1.36877,0.2533 -0.54076,0.1013 -1.23358,0.1521 -2.07851,0.1521 -0.81118,0 -1.50399,-0.052 -2.07851,-0.1521 -0.57456,-0.067 -1.03082,-0.1521 -1.36876,-0.2533 -0.33795,-0.135 -0.57457,-0.3042 -0.70975,-0.5072 -0.13497,-0.203 -0.20297,-0.4392 -0.20297,-0.7097 l 0,-56.88032 -18.45316,0 c -0.27046,5e-5 -0.52384,-0.0675 -0.76046,-0.20298 -0.20298,-0.13497 -0.37169,-0.33794 -0.50666,-0.60835 -0.13497,-0.30421 -0.25333,-0.69277 -0.35508,-1.166 -0.0675,-0.47292 -0.10123,-1.03077 -0.10123,-1.67297 0,-0.64205 0.0363,-1.19969 0.10123,-1.67293 0.10123,-0.50718 0.21959,-0.91246 0.35508,-1.21671 0.13497,-0.30421 0.3042,-0.5238 0.50666,-0.65903 0.23672,-0.13497 0.49005,-0.20297 0.76046,-0.20297 l 45.62589,0 c 0.27046,5e-5 0.50666,0.0675 0.70974,0.20297 0.23672,0.13497 0.42257,0.35508 0.55764,0.65903 0.16872,0.3042 0.28708,0.70979 0.35508,1.21671 0.0675,0.47344 0.10123,1.03088 0.10123,1.67293"
           id="text3340"
           style="font-size:20px;font-style:normal;font-variant:normal;font-weight:normal;font-stretch:normal;text-align:start;line-height:125%;writing-mode:lr-tb;text-anchor:start;fill:#40428b;fill-opacity:1;stroke:none;font-family:Calibri;-inkscape-font-specification:Calibri" />
        <path
           d="m 785.17766,1013.6894 c -5e-5,4.0219 -0.59154,7.6212 -1.77435,10.7982 -1.18293,3.1769 -2.92349,5.8637 -5.22164,8.0605 -2.29825,2.1968 -5.13717,3.8698 -8.51681,5.0189 -3.37974,1.1491 -7.2664,1.7236 -11.65998,1.7236 -4.12323,0 -7.82399,-0.5072 -11.1023,-1.5209 -3.2783,-1.0476 -6.04968,-2.6192 -8.31404,-4.7146 -2.26441,-2.0954 -4.00497,-4.6978 -5.22163,-7.8071 -1.18293,-3.1431 -1.77436,-6.8101 -1.77436,-11.0009 l 0,-39.89733 c 0,-0.33794 0.10123,-0.6421 0.3042,-0.91256 0.20298,-0.27046 0.55765,-0.49005 1.06457,-0.65902 0.54077,-0.16872 1.23359,-0.30421 2.07856,-0.40544 0.84487,-0.10123 1.92641,-0.1521 3.24451,-0.1521 1.28425,5e-5 2.34887,0.0519 3.19379,0.1521 0.84492,0.10123 1.52082,0.23672 2.02779,0.40544 0.50718,0.16923 0.86185,0.38882 1.06461,0.65902 0.23672,0.27046 0.35508,0.57462 0.35508,0.91256 l 0,38.73133 c 0,2.6024 0.32082,4.8668 0.96323,6.7932 0.6421,1.8926 1.55462,3.4642 2.73754,4.7146 1.21666,1.2506 2.65307,2.1969 4.30912,2.839 1.68985,0.6083 3.56553,0.9125 5.62723,0.9125 2.09532,0 3.97107,-0.3208 5.62717,-0.9632 1.65599,-0.6422 3.05856,-1.5715 4.20774,-2.7883 1.14902,-1.2504 2.02774,-2.7713 2.63615,-4.5626 0.6421,-1.825 0.96317,-3.8866 0.96323,-6.1848 l 0,-39.49173 c -6e-5,-0.33794 0.10122,-0.6421 0.3042,-0.91256 0.20298,-0.27046 0.55759,-0.49005 1.06462,-0.65902 0.50666,-0.16872 1.18281,-0.30421 2.02779,-0.40544 0.87866,-0.10123 1.9602,-0.1521 3.24451,-0.1521 1.28425,5e-5 2.33194,0.0519 3.14312,0.1521 0.84487,0.10123 1.52082,0.23672 2.02784,0.40544 0.50667,0.16923 0.86175,0.38882 1.06457,0.65902 0.20297,0.27046 0.3042,0.57462 0.3042,0.91256 l 0,39.33963"
           id="text3344"
           style="font-size:20px;font-style:normal;font-variant:normal;font-weight:bold;font-stretch:normal;text-align:start;line-height:125%;writing-mode:lr-tb;text-anchor:start;fill:#40428b;fill-opacity:1;stroke:none;font-family:Calibri;-inkscape-font-specification:Calibri Bold" />
        <path
           d="m 896.66423,1035.3871 c -6e-5,0.6759 -0.11836,1.2504 -0.35508,1.7236 -0.20298,0.4729 -0.49005,0.8618 -0.8618,1.166 -0.33794,0.3042 -0.72671,0.5239 -1.166,0.659 -0.43917,0.135 -0.87876,0.203 -1.3181,0.203 l -2.78825,0 c -0.87877,0 -1.6561,-0.085 -2.332,-0.2533 -0.64215,-0.203 -1.26743,-0.5408 -1.87574,-1.014 -0.57456,-0.5071 -1.166,-1.1828 -1.7743,-2.0278 -0.57462,-0.8449 -1.21677,-1.9264 -1.92646,-3.2445 l -20.68372,-37.31181 c -1.08154,-1.92641 -2.17995,-3.93733 -3.29523,-6.03276 -1.08148,-2.12918 -2.09543,-4.19077 -3.04168,-6.18487 l -0.10123,0 c 0.0675,2.43344 0.11836,4.91754 0.1521,7.45225 0.0363,2.53482 0.0519,5.05271 0.0519,7.55363 l 0,39.59316 c -5e-5,0.2367 -0.0675,0.4729 -0.20297,0.7097 -0.13498,0.203 -0.3717,0.3717 -0.7097,0.5072 -0.3042,0.1012 -0.72666,0.1858 -1.26738,0.2533 -0.50718,0.1013 -1.16605,0.1521 -1.97712,0.1521 -0.81118,0 -1.48708,-0.052 -2.02785,-0.1521 -0.50718,-0.067 -0.91251,-0.1521 -1.21666,-0.2533 -0.30421,-0.135 -0.5239,-0.3042 -0.65908,-0.5072 -0.13497,-0.2367 -0.20298,-0.4729 -0.20298,-0.7097 l 0,-60.53041 c 0,-1.3518 0.37169,-2.31503 1.11528,-2.88964 0.74354,-0.57446 1.55467,-0.86174 2.43339,-0.86179 l 4.15707,0 c 0.98005,5e-5 1.79117,0.0846 2.43338,0.25333 0.6759,0.16923 1.26733,0.4563 1.7743,0.86179 0.54072,0.37169 1.0477,0.91262 1.52087,1.62225 0.50667,0.676 1.0477,1.53785 1.62226,2.58549 l 15.91839,28.79498 c 0.98005,1.7575 1.92636,3.4811 2.83892,5.171 0.91251,1.656 1.79123,3.2952 2.63615,4.9174 0.84492,1.6223 1.67292,3.2276 2.4841,4.8161 0.84487,1.5547 1.67292,3.1262 2.4841,4.7147 l 0.0519,0 c -0.0675,-2.67 -0.11836,-5.4413 -0.1521,-8.3141 0,-2.9065 0,-5.6947 0,-8.3647 l 0,-35.58825 c 0,-0.23672 0.0675,-0.45631 0.20297,-0.65902 0.13498,-0.20298 0.35508,-0.37169 0.65903,-0.50718 0.33795,-0.16872 0.76036,-0.28708 1.26738,-0.35508 0.54072,-0.0675 1.23354,-0.10123 2.07851,-0.10123 0.74349,5e-5 1.38564,0.0363 1.92646,0.10123 0.54067,0.0675 0.96313,0.18584 1.26738,0.35508 0.30421,0.13549 0.5238,0.3042 0.65903,0.50718 0.13497,0.20297 0.20298,0.42256 0.20298,0.65902 l 0,60.53035"
           id="text3348"
           style="font-size:20px;font-style:normal;font-variant:normal;font-weight:normal;font-stretch:normal;text-align:start;line-height:125%;writing-mode:lr-tb;text-anchor:start;fill:#40428b;fill-opacity:1;stroke:none;font-family:Calibri;-inkscape-font-specification:Calibri" />
        <path
           d="m 1007.6005,981.70058 c -10e-5,0.64221 -0.036,1.21677 -0.1013,1.72364 -0.067,0.47344 -0.1692,0.87877 -0.3042,1.21672 -0.1349,0.30421 -0.3042,0.5239 -0.5066,0.65903 -0.203,0.13497 -0.4226,0.20297 -0.6591,0.20297 -0.4054,5e-5 -1.0815,-0.32082 -2.0278,-0.96318 -0.9464,-0.6421 -2.2138,-1.35184 -3.8021,-2.12922 -1.58856,-0.77729 -3.49809,-1.48703 -5.72865,-2.12923 -2.19687,-0.64205 -4.8161,-0.96313 -7.85779,-0.96318 -3.6163,5e-5 -6.86081,0.65908 -9.73352,1.97712 -2.87277,1.31811 -5.30615,3.14313 -7.30015,5.47507 -1.99405,2.33205 -3.53179,5.10338 -4.61328,8.3141 -1.04774,3.21071 -1.57158,6.69188 -1.57158,10.44318 0,4.1909 0.57456,7.9086 1.72364,11.153 1.18287,3.2446 2.80512,5.9821 4.86676,8.2127 2.06159,2.2306 4.51189,3.9205 7.35086,5.0696 2.87272,1.1491 6.01584,1.7236 9.42932,1.7236 2.02779,0 4.07251,-0.2367 6.1342,-0.7097 2.09533,-0.5072 4.03866,-1.2505 5.82994,-2.2306 l 0,-19.1122 -15.20865,0 c -0.57456,0 -1.01389,-0.2871 -1.31805,-0.8619 -0.27046,-0.5745 -0.40543,-1.4701 -0.40543,-2.6868 0,-0.6421 0.0363,-1.1828 0.10123,-1.6222 0.0675,-0.4729 0.16871,-0.845 0.3042,-1.1154 0.16872,-0.3042 0.35508,-0.5238 0.55764,-0.659 0.20298,-0.135 0.45631,-0.203 0.76041,-0.203 l 20.8359,0 c 0.3717,0 0.7435,0.067 1.1153,0.203 0.3716,0.135 0.7096,0.338 1.0139,0.6084 0.3042,0.2704 0.5407,0.6421 0.7097,1.1153 0.1687,0.4729 0.2533,1.0139 0.2533,1.6222 l 0,24.9928 c 0,0.8788 -0.1521,1.6392 -0.4563,2.2814 -0.3042,0.6421 -0.9463,1.2166 -1.9264,1.7236 -0.9802,0.4729 -2.2476,0.997 -3.8022,1.5716 -1.55471,0.5745 -3.16004,1.0646 -4.81603,1.4702 -1.65611,0.4054 -3.32908,0.7096 -5.01887,0.9125 -1.6899,0.2029 -3.36282,0.3042 -5.01881,0.3042 -5.06959,0 -9.5984,-0.7774 -13.5864,-2.332 -3.98804,-1.5885 -7.36778,-3.836 -10.13911,-6.7425 -2.73754,-2.9065 -4.83297,-6.3876 -6.2862,-10.4432 -1.45328,-4.0557 -2.17995,-8.5845 -2.17995,-13.5864 0,-5.2047 0.77734,-9.91941 2.332,-14.14407 1.58846,-4.22456 3.80215,-7.82394 6.64112,-10.79814 2.87271,-2.9741 6.30312,-5.27225 10.29117,-6.89456 4.02184,-1.65599 8.46609,-2.48404 13.3329,-2.4841 2.50092,6e-5 4.84984,0.21959 7.04666,0.65903 2.19677,0.43969 4.1401,0.96328 5.82999,1.57159 1.72363,0.57461 3.15993,1.21671 4.30913,1.9264 1.1828,0.676 1.9939,1.23364 2.4334,1.67298 0.4392,0.43917 0.7435,0.94636 0.9125,1.52087 0.1687,0.57456 0.2533,1.40261 0.2533,2.48404"
           id="text3352"
           style="font-size:20px;font-style:normal;font-variant:normal;font-weight:normal;font-stretch:normal;text-align:start;line-height:125%;writing-mode:lr-tb;text-anchor:start;fill:#40428b;fill-opacity:1;stroke:none;font-family:Calibri;-inkscape-font-specification:Calibri" />
        <path
           d="m 787.56033,785.56718 c -0.20298,0.81112 -0.49005,1.47015 -0.8618,1.97712 -0.33795,0.47292 -0.8619,0.84492 -1.57159,1.11528 -0.70979,0.23672 -1.6223,0.38882 -2.73753,0.45631 -1.11538,0.10123 -2.53487,0.1521 -4.25841,0.1521 -1.92651,0 -3.48117,-0.0519 -4.66399,-0.1521 -1.14918,-0.0675 -2.06169,-0.21959 -2.73753,-0.45631 -0.676,-0.27046 -1.16611,-0.6421 -1.47021,-1.11528 -0.3042,-0.50718 -0.54082,-1.166 -0.70974,-1.97712 l -10.49394,-41.57026 -0.10123,0 -9.93629,41.57026 c -0.16923,0.77733 -0.40543,1.41948 -0.70974,1.92646 -0.30421,0.47291 -0.79431,0.84492 -1.47021,1.11528 -0.64215,0.27046 -1.53779,0.43917 -2.68681,0.50718 -1.11534,0.10123 -2.60241,0.1521 -4.46123,0.1521 -1.96025,0 -3.53179,-0.0519 -4.71466,-0.1521 -1.14913,-0.0675 -2.06164,-0.21959 -2.73759,-0.45631 -0.67594,-0.27046 -1.16599,-0.6421 -1.47015,-1.11528 -0.3042,-0.50718 -0.55769,-1.166 -0.76041,-1.97713 l -14.90449,-57.23516 c -0.30421,-1.21661 -0.47292,-2.16291 -0.50666,-2.83891 -0.0363,-0.7097 0.1521,-1.25046 0.55764,-1.62226 0.43917,-0.37169 1.1322,-0.59138 2.07851,-0.65908 0.9801,-0.10122 2.33199,-0.1521 4.05563,-0.1521 1.58846,5e-5 2.83892,0.0363 3.75143,0.10123 0.94631,0.0363 1.65605,0.1521 2.12923,0.35508 0.47292,0.16923 0.79421,0.43918 0.96323,0.81113 0.16923,0.33794 0.30421,0.82805 0.40544,1.47015 l 11.50788,50.23917 0.0519,0 11.96409,-49.8843 c 0.13497,-0.6421 0.3042,-1.16595 0.50718,-1.57159 0.23672,-0.40543 0.60831,-0.70964 1.11528,-0.91251 0.54072,-0.23672 1.26738,-0.3883 2.17989,-0.45631 0.91252,-0.10123 2.12918,-0.1521 3.6501,-0.1521 1.62221,5e-5 2.90651,0.0363 3.85287,0.10123 0.98005,0.0675 1.72359,0.21959 2.23056,0.45631 0.54072,0.20297 0.92938,0.50718 1.166,0.91251 0.23672,0.40543 0.42256,0.94636 0.55769,1.62225 l 12.36968,49.8843 0.10123,0 11.50788,-50.08707 c 0.10123,-0.54071 0.2362,-0.99697 0.40543,-1.36882 0.16872,-0.40543 0.49005,-0.70963 0.96323,-0.91251 0.47292,-0.23672 1.14903,-0.3883 2.0278,-0.45631 0.87866,-0.10122 2.11225,-0.1521 3.70076,-0.1521 1.48702,5e-5 2.6361,0.0519 3.44733,0.1521 0.84482,0.0675 1.45318,0.28708 1.82502,0.65908 0.37169,0.37169 0.52374,0.92944 0.45631,1.67292 -0.0363,0.7098 -0.20298,1.6899 -0.50718,2.94036 l -15.05655,57.08305"
           id="text3356"
           style="font-size:20px;font-style:normal;font-variant:normal;font-weight:bold;font-stretch:normal;text-align:start;line-height:125%;writing-mode:lr-tb;text-anchor:start;fill:#40428b;fill-opacity:1;stroke:none;font-family:Calibri;-inkscape-font-specification:Calibri Bold" />
      </g>
    </g>
  </g>
</svg>
